<svg width="20" height="20" viewBox="0 0 20 20" fill="none" xmlns="http://www.w3.org/2000/svg">
<path d="M19.4478 8.38013C19.4478 8.79413 19.1118 9.13013 18.6978 9.13013H16.9478V10.8801C16.9478 11.2941 16.6118 11.6301 16.1978 11.6301C15.7838 11.6301 15.4478 11.2941 15.4478 10.8801V9.13013H13.6978C13.2838 9.13013 12.9478 8.79413 12.9478 8.38013C12.9478 7.96613 13.2838 7.63013 13.6978 7.63013H15.4478V5.88013C15.4478 5.46613 15.7838 5.13013 16.1978 5.13013C16.6118 5.13013 16.9478 5.46613 16.9478 5.88013V7.63013H18.6978C19.1118 7.63013 19.4478 7.96613 19.4478 8.38013ZM7.70679 8.88013C9.91279 8.88013 11.7068 7.08613 11.7068 4.88013C11.7068 2.67413 9.91279 0.880127 7.70679 0.880127C5.50079 0.880127 3.70679 2.67413 3.70679 4.88013C3.70679 7.08613 5.50079 8.88013 7.70679 8.88013ZM9.69775 10.8801H5.69775C1.63775 10.8801 0.197754 13.8532 0.197754 16.3992V19.3801C0.197754 19.6561 0.421754 19.8801 0.697754 19.8801H14.6978C14.9738 19.8801 15.1978 19.6561 15.1978 19.3801V16.3992C15.1978 13.8532 13.7578 10.8801 9.69775 10.8801Z" fill="#22333B"/>
</svg>
