<svg width="19" height="19" viewBox="0 0 19 19" fill="none" xmlns="http://www.w3.org/2000/svg">
<path d="M15.6977 3.38013H14.4477V1.88013C14.4477 0.920127 13.6577 0.130127 12.6977 0.130127H6.69769C5.72769 0.130127 4.94769 0.920127 4.94769 1.88013V3.38013H3.69769C1.69769 3.38013 0.697693 4.38013 0.697693 6.38013V7.34009C0.697693 8.27009 1.2477 9.09017 2.1077 9.42017C3.4877 9.97017 4.91769 10.3902 6.34769 10.6902C6.45769 10.7102 6.55769 10.6302 6.61769 10.5402C7.33769 9.46016 8.49769 8.81018 9.69769 8.81018C10.9077 8.81018 12.0577 9.46016 12.7877 10.5402C12.8477 10.6302 12.9477 10.7102 13.0577 10.6902C14.4877 10.3902 15.9077 9.97018 17.2877 9.43018C18.1477 9.09018 18.6977 8.27009 18.6977 7.34009V6.38013C18.6977 4.38013 17.6977 3.38013 15.6977 3.38013ZM6.44769 3.38013V1.88013C6.44769 1.74013 6.55769 1.63013 6.69769 1.63013H12.6977C12.8377 1.63013 12.9477 1.74013 12.9477 1.88013V3.38013H6.44769ZM13.3577 12.1602C13.2477 12.1802 13.1277 12.1902 13.0177 12.1902C12.4377 12.1902 11.8877 11.8901 11.5377 11.3701C11.0977 10.7101 10.4077 10.3102 9.69769 10.3102C8.99769 10.3102 8.30769 10.7101 7.86769 11.3701C7.44769 11.9901 6.7377 12.3002 6.0477 12.1602C4.5277 11.8502 3.01769 11.4001 1.55769 10.8201C1.24769 10.7001 0.957693 10.5401 0.697693 10.3301V15.3801C0.697693 17.3801 1.69769 18.3801 3.69769 18.3801H15.6977C17.6977 18.3801 18.6977 17.3801 18.6977 15.3801V10.3401C18.4377 10.5401 18.1477 10.7001 17.8377 10.8201C16.3777 11.4001 14.8677 11.8502 13.3577 12.1602ZM9.69969 13.3801C9.14869 13.3801 8.69769 12.9321 8.69769 12.3801C8.69769 11.8281 9.1407 11.3801 9.6917 11.3801H9.69969C10.2507 11.3801 10.6977 11.8281 10.6977 12.3801C10.6977 12.9321 10.2507 13.3801 9.69969 13.3801Z" fill="#22333B"/>
</svg>
