<svg width="18" height="19" viewBox="0 0 18 19" fill="none" xmlns="http://www.w3.org/2000/svg">
<path d="M15 3.6001H13.75V2.1001C13.75 1.1401 12.96 0.350098 12 0.350098H6C5.03 0.350098 4.25 1.1401 4.25 2.1001V3.6001H3C1 3.6001 0 4.6001 0 6.6001V7.56006C0 8.49006 0.550004 9.31014 1.41 9.64014C2.79 10.1901 4.21999 10.6102 5.64999 10.9102C5.75999 10.9302 5.86 10.8501 5.92 10.7601C6.64 9.68013 7.8 9.03015 9 9.03015C10.21 9.03015 11.36 9.68013 12.09 10.7601C12.15 10.8501 12.25 10.9302 12.36 10.9102C13.79 10.6102 15.21 10.1901 16.59 9.65015C17.45 9.31015 18 8.49006 18 7.56006V6.6001C18 4.6001 17 3.6001 15 3.6001ZM5.75 3.6001V2.1001C5.75 1.9601 5.86 1.8501 6 1.8501H12C12.14 1.8501 12.25 1.9601 12.25 2.1001V3.6001H5.75ZM12.66 12.3801C12.55 12.4001 12.43 12.4102 12.32 12.4102C11.74 12.4102 11.19 12.1101 10.84 11.5901C10.4 10.9301 9.71 10.5302 9 10.5302C8.3 10.5302 7.61 10.9301 7.17 11.5901C6.75 12.2101 6.04001 12.5201 5.35001 12.3801C3.83001 12.0701 2.32 11.62 0.860001 11.04C0.550001 10.92 0.26 10.76 0 10.55V15.6001C0 17.6001 1 18.6001 3 18.6001H15C17 18.6001 18 17.6001 18 15.6001V10.5601C17.74 10.7601 17.45 10.92 17.14 11.04C15.68 11.62 14.17 12.0701 12.66 12.3801ZM9.002 13.6001C8.451 13.6001 8 13.1521 8 12.6001C8 12.0481 8.443 11.6001 8.994 11.6001H9.002C9.553 11.6001 10 12.0481 10 12.6001C10 13.1521 9.553 13.6001 9.002 13.6001Z" fill="#C6AC8F"/>
</svg>
