<svg width="24" height="23" viewBox="0 0 24 23" fill="none" xmlns="http://www.w3.org/2000/svg">
<g clip-path="url(#clip0_191_363)">
<path opacity="0.3" d="M21.6437 21H4.54375C3.97375 21 3.59375 20.6222 3.59375 20.0556V4.94444C3.59375 4.37778 3.97375 4 4.54375 4H21.6437C22.2137 4 22.5938 4.37778 22.5938 4.94444V20.0556C22.5938 20.6222 22.2137 21 21.6437 21Z" fill="#7E8299"/>
<path d="M7.52232 6C6.96518 6 6.59375 5.6 6.59375 5V3C6.59375 2.4 6.96518 2 7.52232 2C8.07946 2 8.45089 2.4 8.45089 3V5C8.45089 5.6 8.07946 6 7.52232 6ZM12.1652 5V3C12.1652 2.4 11.7937 2 11.2366 2C10.6795 2 10.308 2.4 10.308 3V5C10.308 5.6 10.6795 6 11.2366 6C11.7937 6 12.1652 5.6 12.1652 5ZM15.8795 5V3C15.8795 2.4 15.508 2 14.9509 2C14.3937 2 14.0223 2.4 14.0223 3V5C14.0223 5.6 14.3937 6 14.9509 6C15.508 6 15.8795 5.6 15.8795 5ZM19.5938 5V3C19.5938 2.4 19.2223 2 18.6652 2C18.108 2 17.7366 2.4 17.7366 3V5C17.7366 5.6 18.108 6 18.6652 6C19.2223 6 19.5938 5.6 19.5938 5Z" fill="#7E8299"/>
<path d="M10.0708 12.5393C10.4378 12.5393 10.713 12.4382 10.8965 12.2359C11.08 12.0337 11.2635 11.7303 11.2635 11.3258C11.2635 11.0224 11.1717 10.7191 10.9882 10.5168C10.8048 10.3146 10.5295 10.2134 10.2543 10.2134C10.0708 10.2134 9.88731 10.2134 9.70383 10.3146C9.52034 10.4157 9.4286 10.5168 9.33686 10.6179C9.24512 10.7191 9.15338 10.8202 9.06163 11.0224C8.96989 11.2247 8.87815 11.3258 8.87815 11.5281C8.87815 11.6292 8.7864 11.6292 8.69466 11.7303C8.60292 11.8314 8.51116 11.8314 8.32768 11.8314C8.14419 11.8314 8.05246 11.7303 7.96071 11.6292C7.86897 11.5281 7.77723 11.3258 7.77723 11.1236C7.77723 10.9213 7.86897 10.7191 7.96071 10.5168C8.05246 10.3146 8.23594 10.1123 8.41943 9.91008C8.60292 9.70783 8.87814 9.50558 9.24511 9.40446C9.61208 9.30336 9.88733 9.20224 10.346 9.20224C10.713 9.20224 10.9882 9.30336 11.2635 9.40446C11.5387 9.50558 11.8139 9.70783 11.9974 9.80895C12.1809 9.91008 12.3644 10.2134 12.4561 10.5168C12.5479 10.8202 12.6396 11.0224 12.6396 11.3258C12.6396 11.7303 12.5479 12.0337 12.3644 12.3371C12.1809 12.6404 11.9974 12.9438 11.7222 13.146C11.9974 13.3483 12.2726 13.5505 12.4561 13.7528C12.6396 13.955 12.8231 14.1573 12.9148 14.4607C13.0066 14.764 13.0983 14.9663 13.0983 15.2697C13.0983 15.6741 13.0066 15.9775 12.9148 16.2809C12.8231 16.5843 12.5479 16.8876 12.3644 17.191C12.1809 17.4944 11.8139 17.6966 11.447 17.7978C11.08 17.8989 10.713 18 10.2543 18C9.79558 18 9.4286 17.8989 9.06163 17.6966C8.69466 17.4944 8.41943 17.2921 8.23594 17.0899C8.05246 16.8876 7.86897 16.5843 7.77723 16.2809C7.68548 15.9775 7.59375 15.7753 7.59375 15.573C7.59375 15.3708 7.68548 15.1685 7.77723 15.0674C7.86897 14.9663 8.05246 14.8652 8.23594 14.8652C8.32769 14.8652 8.41944 14.8652 8.51118 14.9663C8.60293 15.0674 8.69466 15.0674 8.69466 15.1685C8.87815 15.6741 9.06163 16.0786 9.33686 16.382C9.61209 16.6854 9.88732 16.7865 10.2543 16.7865C10.4378 16.7865 10.713 16.6854 10.8965 16.5843C11.08 16.4831 11.2635 16.2809 11.447 16.0786C11.6304 15.8764 11.6304 15.573 11.6304 15.2697C11.6304 14.764 11.5387 14.4607 11.2635 14.1573C10.9882 13.8539 10.713 13.7528 10.346 13.7528C10.2543 13.7528 10.1626 13.7528 9.97906 13.7528C9.79558 13.7528 9.70383 13.7528 9.70383 13.7528C9.52034 13.7528 9.33685 13.6517 9.24511 13.5505C9.15337 13.4494 9.06163 13.2472 9.06163 13.146C9.06163 12.9438 9.15337 12.8427 9.24511 12.6404C9.33685 12.4382 9.52035 12.4382 9.79558 12.4382H10.0708V12.5393ZM16.0341 16.9888V11.6292C15.1167 12.4382 14.4745 12.7415 14.1993 12.7415C14.0158 12.7415 13.924 12.6404 13.8323 12.5393C13.7405 12.4382 13.6488 12.2359 13.6488 12.0337C13.6488 11.8314 13.7405 11.7303 13.8323 11.6292C13.924 11.5281 14.1075 11.4269 14.4745 11.2247C14.9332 11.0224 15.3002 10.7191 15.4837 10.5168C15.6671 10.3146 15.9424 10.0112 16.2176 9.70783C16.4928 9.40446 16.5846 9.20224 16.5846 9.10111C16.5846 8.99999 16.7681 9 16.9515 9C17.135 9 17.3185 9.10111 17.4103 9.20224C17.502 9.30336 17.5938 9.6067 17.5938 9.91008V16.6854C17.5938 17.4944 17.3185 17.8989 16.8598 17.8989C16.6763 17.8989 16.4928 17.7978 16.3093 17.6966C16.1259 17.5955 16.0341 17.2921 16.0341 16.9888Z" fill="#7E8299"/>
</g>
<defs>
<clipPath id="clip0_191_363">
<rect width="23" height="23" fill="white" transform="translate(0.59375)"/>
</clipPath>
</defs>
</svg>
