<svg width="22" height="18" viewBox="0 0 22 18" fill="none" xmlns="http://www.w3.org/2000/svg">
<path d="M14.5177 8.11011C14.3677 8.01011 14.3578 7.80017 14.4778 7.67017C15.2378 6.78017 15.7078 5.64013 15.7078 4.38013C15.7078 4.01013 15.6678 3.65017 15.5878 3.30017C15.5878 3.30017 15.5677 3.22019 15.5677 3.19019C15.5677 3.03019 15.6938 2.89708 15.8538 2.88708C15.8638 2.88708 15.9877 2.88013 16.0377 2.88013C17.9077 2.88013 19.3678 4.71017 18.7078 6.67017C18.4178 7.54017 17.6777 8.22007 16.7977 8.45007C15.9477 8.67007 15.1477 8.51011 14.5177 8.11011ZM17.3678 9.55017C17.1778 9.55017 17.0577 9.6801 17.0577 9.8501C17.0577 9.9201 17.1137 10.0101 17.1677 10.0701C18.3577 11.3001 18.9177 13.0201 18.9177 14.7301V15.6201C18.9177 15.7601 19.0377 15.8801 19.1877 15.8801H20.6978C20.9778 15.8801 21.1978 15.6601 21.1978 15.3801V13.3901C21.1978 11.6201 20.1978 9.55017 17.3678 9.55017ZM4.59778 8.45007C5.44778 8.67007 6.24781 8.51011 6.87781 8.11011C7.02781 8.01011 7.03772 7.80017 6.91772 7.67017C6.15772 6.78017 5.68774 5.64013 5.68774 4.38013C5.68774 4.01013 5.72774 3.65017 5.80774 3.30017C5.80774 3.30017 5.82776 3.22019 5.82776 3.19019C5.82776 3.03019 5.70175 2.89708 5.54175 2.88708C5.53175 2.88708 5.40779 2.88013 5.35779 2.88013C3.48779 2.88013 2.02774 4.71017 2.68774 6.67017C2.97774 7.54017 3.71778 8.22007 4.59778 8.45007ZM4.33777 9.8501C4.33777 9.6801 4.21771 9.55017 4.02771 9.55017C1.19771 9.55017 0.197754 11.6201 0.197754 13.3901V15.3801C0.197754 15.6601 0.417754 15.8801 0.697754 15.8801H2.20776C2.35776 15.8801 2.47778 15.7601 2.47778 15.6201V14.7301C2.47778 13.0201 3.03778 11.3001 4.22778 10.0701C4.28178 10.0101 4.33777 9.9201 4.33777 9.8501ZM10.7058 7.88013C12.6358 7.88013 14.2058 6.31013 14.2058 4.38013C14.2058 2.45013 12.6358 0.880127 10.7058 0.880127C8.77581 0.880127 7.20581 2.45013 7.20581 4.38013C7.20581 6.31013 8.77581 7.88013 10.7058 7.88013ZM12.4747 9.76917H8.9198C5.2698 9.76917 3.97473 12.4411 3.97473 14.7301V17.3801C3.97473 17.6561 4.19873 17.8801 4.47473 17.8801H16.9198C17.1958 17.8801 17.4198 17.6561 17.4198 17.3801V14.7301C17.4208 12.4411 16.1257 9.76917 12.4747 9.76917Z" fill="#22333B"/>
</svg>
