<svg width="22" height="18" viewBox="0 0 22 18" fill="none" xmlns="http://www.w3.org/2000/svg">
<path d="M14.8199 7.32999C14.6699 7.22999 14.66 7.02005 14.78 6.89005C15.54 6.00005 16.01 4.86001 16.01 3.60001C16.01 3.23001 15.97 2.87005 15.89 2.52005C15.89 2.52005 15.87 2.44006 15.87 2.41006C15.87 2.25006 15.996 2.11696 16.156 2.10696C16.166 2.10696 16.29 2.10001 16.34 2.10001C18.21 2.10001 19.67 3.93005 19.01 5.89005C18.72 6.76005 17.98 7.43995 17.1 7.66995C16.25 7.88995 15.4499 7.72999 14.8199 7.32999ZM17.67 8.77005C17.48 8.77005 17.36 8.89998 17.36 9.06998C17.36 9.13998 17.416 9.22995 17.47 9.28995C18.66 10.5199 19.22 12.24 19.22 13.95V14.84C19.22 14.98 19.34 15.1 19.49 15.1H21C21.28 15.1 21.5 14.88 21.5 14.6V12.61C21.5 10.84 20.5 8.77005 17.67 8.77005ZM4.90002 7.66995C5.75002 7.88995 6.55005 7.72999 7.18005 7.32999C7.33005 7.22999 7.33997 7.02005 7.21997 6.89005C6.45997 6.00005 5.98999 4.86001 5.98999 3.60001C5.98999 3.23001 6.02999 2.87005 6.10999 2.52005C6.10999 2.52005 6.13 2.44006 6.13 2.41006C6.13 2.25006 6.00399 2.11696 5.84399 2.10696C5.83399 2.10696 5.71003 2.10001 5.66003 2.10001C3.79003 2.10001 2.32999 3.93005 2.98999 5.89005C3.27999 6.76005 4.02002 7.43995 4.90002 7.66995ZM4.64001 9.06998C4.64001 8.89998 4.51996 8.77005 4.32996 8.77005C1.49996 8.77005 0.5 10.84 0.5 12.61V14.6C0.5 14.88 0.72 15.1 1 15.1H2.51001C2.66001 15.1 2.78003 14.98 2.78003 14.84V13.95C2.78003 12.24 3.34003 10.5199 4.53003 9.28995C4.58403 9.22995 4.64001 9.13998 4.64001 9.06998ZM11.0081 7.10001C12.9381 7.10001 14.5081 5.53001 14.5081 3.60001C14.5081 1.67001 12.9381 0.100006 11.0081 0.100006C9.07806 0.100006 7.50806 1.67001 7.50806 3.60001C7.50806 5.53001 9.07806 7.10001 11.0081 7.10001ZM12.777 8.98904H9.22205C5.57205 8.98904 4.27698 11.661 4.27698 13.95V16.6C4.27698 16.876 4.50098 17.1 4.77698 17.1H17.222C17.498 17.1 17.722 16.876 17.722 16.6V13.95C17.723 11.661 16.428 8.98904 12.777 8.98904Z" fill="#C6AC8F"/>
</svg>
