<svg width="20" height="16" viewBox="0 0 20 16" fill="none" xmlns="http://www.w3.org/2000/svg">
<path d="M17 0.600006H7C5 0.600006 4 1.60001 4 3.60001V13.6C4 14.705 3.104 15.6 2 15.6H17C19 15.6 20 14.6 20 12.6V3.60001C20 1.60001 19 0.600006 17 0.600006ZM12 11.177C12 11.792 11.6919 12.1 11.0769 12.1H7.9231C7.3081 12.1 7 11.792 7 11.177V9.02301C7 8.40801 7.3081 8.10001 7.9231 8.10001H11.0769C11.6919 8.10001 12 8.40801 12 9.02301V11.177ZM17 12.35H15C14.586 12.35 14.25 12.014 14.25 11.6C14.25 11.186 14.586 10.85 15 10.85H17C17.414 10.85 17.75 11.186 17.75 11.6C17.75 12.014 17.414 12.35 17 12.35ZM17 9.35001H15C14.586 9.35001 14.25 9.01401 14.25 8.60001C14.25 8.18601 14.586 7.85001 15 7.85001H17C17.414 7.85001 17.75 8.18601 17.75 8.60001C17.75 9.01401 17.414 9.35001 17 9.35001ZM17 5.35001H7.75C7.336 5.35001 7 5.01401 7 4.60001C7 4.18601 7.336 3.85001 7.75 3.85001H17C17.414 3.85001 17.75 4.18601 17.75 4.60001C17.75 5.01401 17.414 5.35001 17 5.35001ZM1.25098 14.099C0.559977 14.1 0 13.54 0 12.849V6.60001C0 5.50001 0.9 4.60001 2 4.60001H2.5V12.849C2.5 13.539 1.94098 14.098 1.25098 14.099Z" fill="#C6AC8F"/>
</svg>
