<svg width="21" height="16" viewBox="0 0 21 16" fill="none" xmlns="http://www.w3.org/2000/svg">
<path d="M17.6978 0.380127H7.69775C5.69775 0.380127 4.69775 1.38013 4.69775 3.38013V13.3801C4.69775 14.4851 3.80175 15.3801 2.69775 15.3801H17.6978C19.6978 15.3801 20.6978 14.3801 20.6978 12.3801V3.38013C20.6978 1.38013 19.6978 0.380127 17.6978 0.380127ZM12.6978 10.9571C12.6978 11.5721 12.3897 11.8801 11.7747 11.8801H8.62085C8.00585 11.8801 7.69775 11.5721 7.69775 10.9571V8.80313C7.69775 8.18813 8.00585 7.88013 8.62085 7.88013H11.7747C12.3897 7.88013 12.6978 8.18813 12.6978 8.80313V10.9571ZM17.6978 12.1301H15.6978C15.2838 12.1301 14.9478 11.7941 14.9478 11.3801C14.9478 10.9661 15.2838 10.6301 15.6978 10.6301H17.6978C18.1118 10.6301 18.4478 10.9661 18.4478 11.3801C18.4478 11.7941 18.1118 12.1301 17.6978 12.1301ZM17.6978 9.13013H15.6978C15.2838 9.13013 14.9478 8.79413 14.9478 8.38013C14.9478 7.96613 15.2838 7.63013 15.6978 7.63013H17.6978C18.1118 7.63013 18.4478 7.96613 18.4478 8.38013C18.4478 8.79413 18.1118 9.13013 17.6978 9.13013ZM17.6978 5.13013H8.44775C8.03375 5.13013 7.69775 4.79413 7.69775 4.38013C7.69775 3.96613 8.03375 3.63013 8.44775 3.63013H17.6978C18.1118 3.63013 18.4478 3.96613 18.4478 4.38013C18.4478 4.79413 18.1118 5.13013 17.6978 5.13013ZM1.94873 13.8791C1.25773 13.8801 0.697754 13.3201 0.697754 12.6291V6.38013C0.697754 5.28013 1.59775 4.38013 2.69775 4.38013H3.19775V12.6291C3.19775 13.3191 2.63873 13.8781 1.94873 13.8791Z" fill="#22333B"/>
</svg>
